<?xml version="1.0" standalone="no"?>
<!DOCTYPE svg PUBLIC "-//W3C//DTD SVG 20010904//EN"
 "http://www.w3.org/TR/2001/REC-SVG-20010904/DTD/svg10.dtd">
<svg version="1.0" xmlns="http://www.w3.org/2000/svg"
 width="225.000000pt" height="225.000000pt" viewBox="0 0 225.000000 225.000000"
 preserveAspectRatio="xMidYMid meet">
<metadata>
Created by potrace 1.14, written by Peter Selinger 2001-2017
</metadata>
<g transform="translate(0.000000,225.000000) scale(0.100000,-0.100000)"
fill="#000000" stroke="none">
<path d="M680 1974 c-156 -151 -289 -273 -295 -271 -5 3 -66 44 -135 92 l-125
87 -3 -523 -2 -523 77 -79 c43 -43 234 -232 426 -419 l347 -340 0 338 0 339
-48 30 c-76 48 -455 293 -475 307 -16 12 -18 28 -15 166 l3 153 168 -108 c92
-59 211 -136 265 -170 l97 -62 3 315 c1 173 1 455 0 628 l-3 314 -285 -274z"/>
<path d="M1280 1621 l0 -633 23 15 c13 8 57 36 98 62 41 25 151 96 244 156
l170 110 3 -153 c3 -138 1 -154 -15 -166 -20 -14 -399 -259 -475 -307 l-48
-30 0 -339 0 -338 348 340 c191 187 382 376 425 419 l77 79 -2 523 -3 523
-125 -87 c-69 -48 -130 -89 -136 -92 -9 -3 -188 164 -501 471 l-83 81 0 -634z"/>
</g>
</svg>
